HIERARCHY
ROOT Root
{
  OFFSET 0.0 0.0 0.0
  CHANNELS 6 Xposition Yposition Zposition Zrotation Yrotation Xrotation
  JOINT Hips
  {
    OFFSET 0.0 100.0 0.0
    CHANNELS 6 Xposition Yposition Zposition Zrotation Yrotation Xrotation
    JOINT Spine1
    {
      OFFSET -0.013727 5.003763 -0.053727
      CHANNELS 3 Zrotation Yrotation Xrotation
      JOINT Spine2
      {
        OFFSET -0.0 7.125301 -0.029825
        CHANNELS 3 Zrotation Yrotation Xrotation
        JOINT Chest
        {
          OFFSET -1e-06 7.550063 -0.815971
          CHANNELS 3 Zrotation Yrotation Xrotation
          JOINT Neck1
          {
            OFFSET -0.181677 26.311295 -0.553348
            CHANNELS 3 Zrotation Yrotation Xrotation
            JOINT Neck2
            {
              OFFSET -3e-06 7.709397 2.302585
              CHANNELS 3 Zrotation Yrotation Xrotation
              JOINT Head
              {
                OFFSET -5e-06 6.128916 1.953709
                CHANNELS 3 Zrotation Yrotation Xrotation
                JOINT HeadEnd
                {
                  OFFSET 0.003598 16.065403 -1.835379
                  CHANNELS 3 Zrotation Yrotation Xrotation
                }
                JOINT Jaw
                {
                  OFFSET 0.002637 0.475592 3.094941
                  CHANNELS 3 Zrotation Yrotation Xrotation
                }
                JOINT LeftEye
                {
                  OFFSET 3.206381 5.380205 7.586883
                  CHANNELS 3 Zrotation Yrotation Xrotation
                }
                JOINT RightEye
                {
                  OFFSET -3.22244 5.361869 7.558234
                  CHANNELS 3 Zrotation Yrotation Xrotation
                }
              }
            }
          }
          JOINT LeftShoulder
          {
            OFFSET 1.621652 23.237164 5.113413
            CHANNELS 3 Zrotation Yrotation Xrotation
            JOINT LeftArm
            {
              OFFSET 14.919846 2e-06 -5.502326
              CHANNELS 3 Zrotation Yrotation Xrotation
              JOINT LeftForeArm
              {
                OFFSET 28.739307 0.0 -0.002588
                CHANNELS 3 Zrotation Yrotation Xrotation
                JOINT LeftHand
                {
                  OFFSET 27.093981 -1e-06 0.002609
                  CHANNELS 3 Zrotation Yrotation Xrotation
                  JOINT LeftHandThumb1
                  {
                    OFFSET 2.276482 -1.392045 3.191413
                    CHANNELS 3 Zrotation Yrotation Xrotation
                    JOINT LeftHandThumb2
                    {
                      OFFSET 4.012836 -1.828127 1.641654
                      CHANNELS 3 Zrotation Yrotation Xrotation
                      JOINT LeftHandThumb3
                      {
                        OFFSET 2.798515 0.0 -3e-06
                        CHANNELS 3 Zrotation Yrotation Xrotation
                        JOINT LeftHandThumbEnd
                        {
                          OFFSET 3.180793 -4e-06 4e-06
                          CHANNELS 3 Zrotation Yrotation Xrotation
                        }
                      }
                    }
                  }
                  JOINT LeftHandIndex1
                  {
                    OFFSET 3.247555 -0.531998 2.296169
                    CHANNELS 3 Zrotation Yrotation Xrotation
                    JOINT LeftHandIndex2
                    {
                      OFFSET 6.364578 0.01206 0.1786
                      CHANNELS 3 Zrotation Yrotation Xrotation
                      JOINT LeftHandIndex3
                      {
                        OFFSET 3.662364 0.0 0.0
                        CHANNELS 3 Zrotation Yrotation Xrotation
                        JOINT LeftHandIndex4
                        {
                          OFFSET 2.329242 4e-06 4e-06
                          CHANNELS 3 Zrotation Yrotation Xrotation
                          JOINT LeftHandIndexEnd
                          {
                            OFFSET 2.759615 -0.180537 -0.113024
                            CHANNELS 3 Zrotation Yrotation Xrotation
                          }
                        }
                      }
                    }
                  }
                  JOINT LeftHandMiddle1
                  {
                    OFFSET 3.163495 0.240981 1.000332
                    CHANNELS 3 Zrotation Yrotation Xrotation
                    JOINT LeftHandMiddle2
                    {
                      OFFSET 6.19078 -0.259278 -1.002548
                      CHANNELS 3 Zrotation Yrotation Xrotation
                      JOINT LeftHandMiddle3
                      {
                        OFFSET 4.35652 -4e-06 -1e-06
                        CHANNELS 3 Zrotation Yrotation Xrotation
                        JOINT LeftHandMiddle4
                        {
                          OFFSET 2.996877 -8e-06 0.0
                          CHANNELS 3 Zrotation Yrotation Xrotation
                          JOINT LeftHandMiddleEnd
                          {
                            OFFSET 2.304287 -0.294569 -0.031741
                            CHANNELS 3 Zrotation Yrotation Xrotation
                          }
                        }
                      }
                    }
                  }
                  JOINT LeftHandRing1
                  {
                    OFFSET 2.882643 -0.053652 -0.322543
                    CHANNELS 3 Zrotation Yrotation Xrotation
                    JOINT LeftHandRing2
                    {
                      OFFSET 5.854541 -0.486202 -1.373841
                      CHANNELS 3 Zrotation Yrotation Xrotation
                      JOINT LeftHandRing3
                      {
                        OFFSET 4.350578 0.0 3e-06
                        CHANNELS 3 Zrotation Yrotation Xrotation
                        JOINT LeftHandRing4
                        {
                          OFFSET 2.651321 7e-06 2e-06
                          CHANNELS 3 Zrotation Yrotation Xrotation
                          JOINT LeftHandRingEnd
                          {
                            OFFSET 1.936105 0.077687 -7.1e-05
                            CHANNELS 3 Zrotation Yrotation Xrotation
                          }
                        }
                      }
                    }
                  }
                  JOINT LeftHandPinky1
                  {
                    OFFSET 2.8655 -0.310005 -1.600378
                    CHANNELS 3 Zrotation Yrotation Xrotation
                    JOINT LeftHandPinky2
                    {
                      OFFSET 5.087849 -1.331141 -1.77123
                      CHANNELS 3 Zrotation Yrotation Xrotation
                      JOINT LeftHandPinky3
                      {
                        OFFSET 3.070974 4e-06 0.0
                        CHANNELS 3 Zrotation Yrotation Xrotation
                        JOINT LeftHandPinky4
                        {
                          OFFSET 1.549672 0.0 1e-06
                          CHANNELS 3 Zrotation Yrotation Xrotation
                          JOINT LeftHandPinkyEnd
                          {
                            OFFSET 1.944893 -0.157802 0.057219
                            CHANNELS 3 Zrotation Yrotation Xrotation
                          }
                        }
                      }
                    }
                  }
                }
              }
            }
          }
          JOINT RightShoulder
          {
            OFFSET -1.380118 23.180309 5.214158
            CHANNELS 3 Zrotation Yrotation Xrotation
            JOINT RightArm
            {
              OFFSET -15.037196 1.2e-05 -5.545604
              CHANNELS 3 Zrotation Yrotation Xrotation
              JOINT RightForeArm
              {
                OFFSET -28.736639 2e-06 -0.002597
                CHANNELS 3 Zrotation Yrotation Xrotation
                JOINT RightHand
                {
                  OFFSET -27.133619 -0.0 0.002613
                  CHANNELS 3 Zrotation Yrotation Xrotation
                  JOINT RightHandThumb1
                  {
                    OFFSET -2.274032 -1.383988 3.163127
                    CHANNELS 3 Zrotation Yrotation Xrotation
                    JOINT RightHandThumb2
                    {
                      OFFSET -4.011429 -1.827466 1.640914
                      CHANNELS 3 Zrotation Yrotation Xrotation
                      JOINT RightHandThumb3
                      {
                        OFFSET -2.794935 -4e-06 -3e-06
                        CHANNELS 3 Zrotation Yrotation Xrotation
                        JOINT RightHandThumbEnd
                        {
                          OFFSET -3.183852 4e-06 1e-06
                          CHANNELS 3 Zrotation Yrotation Xrotation
                        }
                      }
                    }
                  }
                  JOINT RightHandIndex1
                  {
                    OFFSET -3.253266 -0.520057 2.282866
                    CHANNELS 3 Zrotation Yrotation Xrotation
                    JOINT RightHandIndex2
                    {
                      OFFSET -6.341917 0.012471 0.178266
                      CHANNELS 3 Zrotation Yrotation Xrotation
                      JOINT RightHandIndex3
                      {
                        OFFSET -3.654871 -8e-06 -0.0
                        CHANNELS 3 Zrotation Yrotation Xrotation
                        JOINT RightHandIndex4
                        {
                          OFFSET -2.327586 0.0 1e-06
                          CHANNELS 3 Zrotation Yrotation Xrotation
                          JOINT RightHandIndexEnd
                          {
                            OFFSET -2.76179 -0.180656 -0.113078
                            CHANNELS 3 Zrotation Yrotation Xrotation
                          }
                        }
                      }
                    }
                  }
                  JOINT RightHandMiddle1
                  {
                    OFFSET -3.168106 0.246593 1.00103
                    CHANNELS 3 Zrotation Yrotation Xrotation
                    JOINT RightHandMiddle2
                    {
                      OFFSET -6.180828 -0.258836 -1.000895
                      CHANNELS 3 Zrotation Yrotation Xrotation
                      JOINT RightHandMiddle3
                      {
                        OFFSET -4.348901 0.0 -0.0
                        CHANNELS 3 Zrotation Yrotation Xrotation
                        JOINT RightHandMiddle4
                        {
                          OFFSET -3.00024 -4e-06 -2e-06
                          CHANNELS 3 Zrotation Yrotation Xrotation
                          JOINT RightHandMiddleEnd
                          {
                            OFFSET -2.30252 -0.29437 -0.031706
                            CHANNELS 3 Zrotation Yrotation Xrotation
                          }
                        }
                      }
                    }
                  }
                  JOINT RightHandRing1
                  {
                    OFFSET -2.88569 -0.067952 -0.308858
                    CHANNELS 3 Zrotation Yrotation Xrotation
                    JOINT RightHandRing2
                    {
                      OFFSET -5.854198 -0.48613 -1.373731
                      CHANNELS 3 Zrotation Yrotation Xrotation
                      JOINT RightHandRing3
                      {
                        OFFSET -4.33881 -4e-06 -0.0
                        CHANNELS 3 Zrotation Yrotation Xrotation
                        JOINT RightHandRing4
                        {
                          OFFSET -2.654903 -4e-06 4e-06
                          CHANNELS 3 Zrotation Yrotation Xrotation
                          JOINT RightHandRingEnd
                          {
                            OFFSET -1.933568 0.077527 -5.2e-05
                            CHANNELS 3 Zrotation Yrotation Xrotation
                          }
                        }
                      }
                    }
                  }
                  JOINT RightHandPinky1
                  {
                    OFFSET -2.866425 -0.342796 -1.584145
                    CHANNELS 3 Zrotation Yrotation Xrotation
                    JOINT RightHandPinky2
                    {
                      OFFSET -5.091371 -1.332055 -1.772385
                      CHANNELS 3 Zrotation Yrotation Xrotation
                      JOINT RightHandPinky3
                      {
                        OFFSET -3.062664 -4e-06 1e-06
                        CHANNELS 3 Zrotation Yrotation Xrotation
                        JOINT RightHandPinky4
                        {
                          OFFSET -1.546529 4e-06 -2e-06
                          CHANNELS 3 Zrotation Yrotation Xrotation
                          JOINT RightHandPinkyEnd
                          {
                            OFFSET -1.945119 -0.157718 0.057211
                            CHANNELS 3 Zrotation Yrotation Xrotation
                          }
                        }
                      }
                    }
                  }
                }
              }
            }
          }
        }
      }
    }
    JOINT LeftLeg
    {
      OFFSET 10.043214 -8.434526 2.595655
      CHANNELS 3 Zrotation Yrotation Xrotation
      JOINT LeftShin
      {
        OFFSET -1e-06 -43.221752 -0.802913
        CHANNELS 3 Zrotation Yrotation Xrotation
        JOINT LeftFoot
        {
          OFFSET 1e-06 -42.155094 -3.481523
          CHANNELS 3 Zrotation Yrotation Xrotation
          JOINT LeftToeBase
          {
            OFFSET 0.0 -5.059472 13.231529
            CHANNELS 3 Zrotation Yrotation Xrotation
            JOINT LeftToeEnd
            {
              OFFSET -0.009607 -1.647619 6.513017
              CHANNELS 3 Zrotation Yrotation Xrotation
            }
          }
        }
      }
    }
    JOINT RightLeg
    {
      OFFSET -10.047278 -8.29526 2.620317
      CHANNELS 3 Zrotation Yrotation Xrotation
      JOINT RightShin
      {
        OFFSET 1e-06 -43.362206 -0.805556
        CHANNELS 3 Zrotation Yrotation Xrotation
        JOINT RightFoot
        {
          OFFSET 2e-06 -42.117393 -3.478398
          CHANNELS 3 Zrotation Yrotation Xrotation
          JOINT RightToeBase
          {
            OFFSET -0.0 -5.079609 13.284196
            CHANNELS 3 Zrotation Yrotation Xrotation
            JOINT RightToeEnd
            {
              OFFSET 0.009532 -1.634378 6.460591
              CHANNELS 3 Zrotation Yrotation Xrotation
            }
          }
        }
      }
    }
  }
}
MOTION
Frames: 4
Frame Time: 0.03333333333333333
0.0 0.0 0.0 0.0 -0.0 0.0 -0.648437 99.946938 -0.615726 -0.116617 -1.44326 -0.222488 0.789109 -0.17276 -4.113101 -0.696125 0.028373 -6.230317 -2.823209 -1.688118 15.347914 -1.730438 3.647424 7.443227 0.341615 3.613563 -3.798439 -1.527516 4.062004 -4.344138 7.7e-05 -2.3e-05 6e-06 0.036459 -0.03655 -0.011342 0.757365 -3.754487 -10.657472 -0.687887 3.696451 -10.661273 -17.183023 -1.881406 12.881047 -44.847816 -1.629006 15.443305 -156.499985 -87.384834 155.545624 8.253692 5.194689 -31.426855 -5.88211 9.86129 0.702591 -10.936875 -0.360574 7.156209 -1e-06 8.774828 0.0 -15.720995 17.859583 6.581095 -1.844033 2.498505 -2.50728 -10.163608 4.678947 4.621113 -20.97604 -3e-06 -0.0 -21.226303 2.451698 -3.594004 -0.0 -6e-06 -1e-06 -1.362682 2.240798 -0.746324 -21.334929 0.584912 3.008323 -13.821221 -2e-06 0.0 -23.887182 -0.24908 -0.839487 -59.94101 2.953733 -1.262025 -0.294026 1.679688 0.833257 -14.218217 0.093215 1.30058 -34.212074 -0.287563 0.967167 -20.033226 0.964536 1.212842 -0.0 -0.0 0.0 -3.440389 0.788234 0.501656 -15.928198 -3.167308 2.999707 -6.33883 -1e-06 1e-06 -18.123459 3.648184 -4.905674 -5e-06 0.0 -2e-06 32.946369 1.920506 16.685913 35.929596 5.583075 22.466101 0.896269 52.294926 0.888583 2.474182 -27.060125 -18.025448 2.243543 -5.255037 -3.180157 14.282897 -0.826596 6.952505 -3e-06 -12.690609 2e-06 16.202477 -17.095652 2.405929 1.665667 -1.955922 -2.878299 4.727801 -4.170589 4.993926 11.020531 3e-06 -2e-06 12.109058 -3.735717 -2.866783 0.0 1e-06 -1e-06 1.291986 -1.92855 -1.498089 14.800136 0.567468 3.865609 14.242579 -1.341737 -6.660656 19.631975 0.143925 -0.648244 49.414654 -0.416432 -6.227407 0.353029 -1.511151 -0.03194 20.222801 3.68431 2.316631 18.787285 4e-06 0.0 10.751633 -0.47987 1.397907 -1e-06 -1e-06 1e-06 3.273808 0.305947 -0.58011 21.486822 11.830379 2.266135 8.16293 1e-06 -1e-06 18.399088 -3.798988 -4.940577 4e-06 0.0 -1e-06 6.51089 21.160269 -2.382106 -0.060617 -0.205642 9.207322 -6.732889 -1.749692 -4.417215 1.636354 -1.972572 0.077292 0.0 0.0 2e-06 -6.490527 -13.121425 -2.978952 0.004048 -0.035596 7.709986 8.379426 1.603536 -3.110381 -1.42284 0.91031 0.218387 -0.0 -0.0 -1e-06 
0.0 0.0 0.0 0.0 -0.0 0.0 -0.647589 99.949059 -0.718084 -0.052163 -1.150524 -0.241453 0.701106 -0.159931 -4.106645 -0.711447 0.059534 -6.244135 -3.098013 -1.70384 15.216598 -1.809389 3.75445 8.896478 0.364868 3.788295 -3.80527 -1.320983 4.115165 -4.417662 7.7e-05 -2.3e-05 6e-06 0.038441 -0.04127 -0.001939 0.746596 -3.754755 -10.63585 -0.673849 3.687919 -10.642099 -16.831787 -2.08579 12.414512 -44.302334 -4.739524 12.853769 -172.628616 -80.629814 171.592819 8.434029 5.450954 -35.368359 -5.882102 9.861284 0.702589 -10.936868 -0.360575 7.156204 1e-06 8.774826 -2e-06 -15.641079 18.205128 6.645895 -1.844032 2.498504 -2.507277 -10.163595 4.678944 4.621107 -20.976017 -4e-06 2e-06 -21.226278 2.451696 -3.594001 0.0 -6e-06 1e-06 -1.36268 2.240798 -0.746323 -21.334906 0.584907 3.008322 -13.821211 -4e-06 2e-06 -23.887161 -0.249081 -0.839482 -59.749683 2.964194 -1.366479 -0.294025 1.679687 0.833256 -14.218206 0.093214 1.300579 -34.212044 -0.287567 0.967172 -20.033209 0.964535 1.212844 -0.0 -0.0 -0.0 -3.440388 0.788232 0.501656 -15.928179 -3.167312 2.999706 -6.338825 -2e-06 1e-06 -18.123442 3.648181 -4.90567 -4e-06 0.0 -2e-06 32.64901 1.722422 16.52424 35.579056 5.813462 21.696873 1.003641 54.017952 0.983387 3.683105 -27.503534 -17.837925 2.243542 -5.255037 -3.180157 14.282894 -0.826595 6.9525 -2e-06 -12.690605 -1e-06 16.221403 -17.019588 2.392732 1.665666 -1.955921 -2.878299 4.727799 -4.170588 4.993925 11.020529 2e-06 -2e-06 12.109056 -3.735716 -2.866785 -1e-06 -0.0 1e-06 1.291986 -1.928549 -1.498089 14.800129 0.567468 3.865606 14.242574 -1.341737 -6.660658 19.631969 0.143926 -0.648245 49.332695 -0.400445 -6.156368 0.353029 -1.511151 -0.03194 20.222794 3.68431 2.316628 18.787273 5e-06 -3e-06 10.751629 -0.479867 1.397905 -2e-06 0.0 0.0 3.273807 0.305946 -0.580111 21.486818 11.830376 2.266132 8.162929 2e-06 -1e-06 18.399086 -3.798985 -4.940578 3e-06 1e-06 -1e-06 6.409088 21.164087 -2.494083 -0.053065 -0.197874 9.196943 -6.641353 -2.07221 -4.288868 1.637627 -1.950239 0.050085 0.0 0.0 2e-06 -6.564267 -13.286743 -3.051879 -0.005877 -0.024974 7.89372 8.254199 1.571569 -3.168366 -1.429932 0.91644 0.256989 -0.0 -0.0 -1e-06 
0.0 0.0 0.0 0.0 -0.0 0.0 -0.632186 99.945274 -0.836274 0.041625 -0.850008 -0.281954 0.57302 -0.1482 -4.076758 -0.746262 0.061621 -6.256736 -3.406813 -1.786095 15.066612 -1.898308 3.882647 10.35314 0.387218 3.952467 -3.802899 -1.132481 4.246704 -4.583296 7.7e-05 -2.3e-05 6e-06 0.038386 -0.05024 0.01314 0.739455 -3.75917 -10.609482 -0.667497 3.674982 -10.618249 -16.319956 -2.431625 11.937918 -44.006378 -8.717667 10.607611 -175.55986 -75.603935 174.492538 8.851457 6.097526 -39.183292 -5.882104 9.861293 0.70259 -10.93687 -0.360578 7.156211 0.0 8.774832 -3e-06 -15.705219 18.504128 6.566763 -1.844032 2.498507 -2.507279 -10.163598 4.678946 4.621112 -20.976025 -4e-06 4e-06 -21.226284 2.451698 -3.594002 -0.0 -6e-06 1e-06 -1.36268 2.2408 -0.746324 -21.334913 0.584907 3.008328 -13.821216 -3e-06 4e-06 -23.887175 -0.249078 -0.83948 -59.645405 2.957942 -1.492199 -0.294024 1.679688 0.833256 -14.218212 0.093213 1.300583 -34.212055 -0.287564 0.967176 -20.033218 0.964538 1.212847 -0.0 -1e-06 -0.0 -3.440389 0.788233 0.501655 -15.928189 -3.167314 2.999712 -6.338827 -2e-06 2e-06 -18.123447 3.648187 -4.905673 -3e-06 0.0 -2e-06 32.243015 1.543362 16.357979 35.189121 6.075871 20.759258 1.106249 56.226585 1.13577 4.858589 -28.032084 -17.977947 2.243543 -5.255039 -3.180157 14.282894 -0.826596 6.952501 -1e-06 -12.690609 -2e-06 16.234537 -16.996632 2.42129 1.665667 -1.955922 -2.8783 4.7278 -4.17059 4.993925 11.020529 2e-06 -2e-06 12.109057 -3.735718 -2.866787 -1e-06 -0.0 0.0 1.291986 -1.92855 -1.49809 14.800132 0.567467 3.865607 14.242577 -1.341738 -6.66066 19.631969 0.143926 -0.648247 49.361435 -0.390339 -6.114641 0.353029 -1.511151 -0.031941 20.222795 3.684309 2.316628 18.787275 4e-06 -4e-06 10.751631 -0.479869 1.397905 -2e-06 -0.0 -1e-06 3.273807 0.305947 -0.58011 21.486814 11.830378 2.266131 8.162928 2e-06 -1e-06 18.399088 -3.798986 -4.94058 3e-06 1e-06 -0.0 6.263925 21.105415 -2.610503 -0.041927 -0.176348 9.21595 -6.574609 -2.358768 -4.172391 1.634413 -1.935858 0.008145 0.0 0.0 2e-06 -6.685513 -13.428836 -3.175877 -0.011838 0.003492 8.216773 8.132182 1.542404 -3.281315 -1.437147 0.920551 0.256629 -0.0 -0.0 -1e-06 
0.0 0.0 0.0 0.0 -0.0 0.0 -0.597412 99.939835 -0.960068 0.133454 -0.625641 -0.324699 0.41751 -0.155296 -4.042237 -0.799042 0.010612 -6.257722 -3.698852 -1.897578 14.8867 -2.045307 4.084607 11.730261 0.439663 4.110231 -3.780702 -0.967968 4.466066 -4.806546 7.7e-05 -2.3e-05 6e-06 0.034245 -0.04838 0.032473 0.73335 -3.75799 -10.59203 -0.670416 3.678732 -10.602804 -15.675447 -2.828739 11.487645 -43.962593 -12.925097 8.743896 -177.103195 -72.575119 175.925018 9.702039 7.206162 -41.963169 -5.88211 9.861293 0.702589 -10.936877 -0.360576 7.156213 1e-06 8.774831 -1e-06 -15.907087 18.550894 6.341971 -1.844035 2.498507 -2.507281 -10.163606 4.678949 4.621113 -20.976034 -2e-06 2e-06 -21.226299 2.451699 -3.594004 0.0 -5e-06 -0.0 -1.362683 2.2408 -0.746324 -21.334929 0.584912 3.008327 -13.821221 -1e-06 2e-06 -23.887184 -0.249078 -0.839485 -59.56356 2.901514 -1.570924 -0.294026 1.679689 0.833257 -14.218218 0.093215 1.300581 -34.212074 -0.287562 0.967172 -20.033226 0.964539 1.212844 -0.0 1e-06 -0.0 -3.44039 0.788234 0.501656 -15.928201 -3.16731 2.999711 -6.338832 -0.0 1e-06 -18.123459 3.648187 -4.905674 -5e-06 1e-06 -2e-06 31.78808 1.34133 16.132265 34.715549 6.331013 19.458677 1.319428 59.042423 1.422434 5.685085 -28.500729 -18.454266 2.243543 -5.255038 -3.180157 14.282896 -0.826596 6.952503 -2e-06 -12.69061 -0.0 16.250221 -17.054655 2.469815 1.665667 -1.955922 -2.878299 4.727801 -4.17059 4.993924 11.020531 2e-06 -2e-06 12.109059 -3.735718 -2.866786 0.0 -0.0 -1e-06 1.291986 -1.92855 -1.49809 14.800132 0.567467 3.865609 14.242578 -1.341738 -6.66066 19.631975 0.143925 -0.648246 49.515015 -0.396005 -6.132617 0.353029 -1.511151 -0.031939 20.222799 3.684311 2.316628 18.787283 5e-06 -4e-06 10.751634 -0.479869 1.397904 -1e-06 -1e-06 1e-06 3.273808 0.305947 -0.58011 21.486818 11.83038 2.266132 8.16293 1e-06 -0.0 18.399088 -3.798987 -4.940579 4e-06 1e-06 -2e-06 6.111437 21.020048 -2.72566 -0.037148 -0.151881 9.265524 -6.548774 -2.560607 -4.027457 1.628424 -1.943708 -0.048327 -0.0 0.0 2e-06 -6.811887 -13.491817 -3.313382 -0.013143 0.036098 8.529846 8.05273 1.495085 -3.377745 -1.443932 0.915188 0.231359 -0.0 -0.0 -1e-06 
